<?xml version="1.0" encoding="UTF-8"?>
<svg width="287px" height="68px" viewBox="0 0 287 68" version="1.1" xmlns="http://www.w3.org/2000/svg" xmlns:xlink="http://www.w3.org/1999/xlink">
    <!-- Generator: Sketch 52.6 (67491) - http://www.bohemiancoding.com/sketch -->
    <title>Group</title>
    <desc>Created with Sketch.</desc>
    <g id="Page-1" stroke="none" stroke-width="1" fill="none" fill-rule="evenodd">
        <g id="Group-2-Copy" transform="translate(-97.000000, -815.000000)" fill="#373737">
            <g id="techou-copy-2">
                <g id="Group" transform="translate(97.000000, 815.000000)">
                    <g id="Group-3-Copy">
                        <path d="M12.9006085,-3.55271368e-15 L45.5172414,-3.55271368e-15 C50.9616712,2.82785838e-16 55.3752535,4.41358239 55.3752535,9.85801217 L55.3752535,58.1077998 C55.3752535,63.5522296 50.9616712,67.965812 45.5172414,67.965812 L12.9006085,67.965812 C7.45617873,67.965812 3.04259635,63.5522296 3.04259635,58.1077998 L3.04259635,9.85801217 C3.04259635,4.41358239 7.45617873,-4.32894499e-15 12.9006085,-5.32907052e-15 Z M12.7789047,4.24786325 C9.75422145,4.24786325 7.30223124,6.69985346 7.30223124,9.72453668 L7.30223124,58.2412753 C7.30223124,61.2659585 9.75422145,63.7179487 12.7789047,63.7179487 L46.2474645,63.7179487 C49.2721477,63.7179487 51.7241379,61.2659585 51.7241379,58.2412753 L51.7241379,9.72453668 C51.7241379,6.69985346 49.2721477,4.24786325 46.2474645,4.24786325 L12.7789047,4.24786325 Z" id="Combined-Shape"></path>
                        <rect id="Rectangle-Copy-11" x="0" y="54.008547" width="10.9533469" height="3.03418803" rx="1.51709402"></rect>
                        <rect id="Rectangle-Copy-12" x="0" y="47.9401709" width="10.9533469" height="3.03418803" rx="1.51709402"></rect>
                        <rect id="Rectangle-Copy-13" x="0" y="41.8717949" width="10.9533469" height="3.03418803" rx="1.51709402"></rect>
                        <rect id="Rectangle-Copy-14" x="0" y="35.8034188" width="10.9533469" height="3.03418803" rx="1.51709402"></rect>
                        <rect id="Rectangle-Copy-15" x="0" y="29.1282051" width="10.9533469" height="3.03418803" rx="1.51709402"></rect>
                        <rect id="Rectangle-Copy-16" x="0" y="23.0598291" width="10.9533469" height="3.03418803" rx="1.51709402"></rect>
                        <rect id="Rectangle-Copy-17" x="0" y="16.991453" width="10.9533469" height="3.03418803" rx="1.51709402"></rect>
                        <rect id="Rectangle-Copy-18" x="0" y="10.9230769" width="10.9533469" height="3.03418803" rx="1.51709402"></rect>
                    </g>
                    <path d="M72.0791075,18.5760909 C85.9148765,18.5760909 100.887343,17.4969942 116.996957,15.3387684 L117.401623,19.3854215 C109.231196,20.4645344 102.814425,22.7479802 98.1511156,26.2358272 C93.4878063,29.7236743 91.1561866,33.722113 91.1561866,38.2312633 C91.1561866,42.4320957 92.8133709,45.8235425 96.127789,48.4057055 C99.4422072,50.9878685 104.163255,52.5101657 110.291075,52.9726426 L109.8286,57.1349144 C102.544588,56.6338977 96.8407914,54.7454785 92.7170385,51.4696 C88.5932857,48.1937216 86.5314402,43.9736827 86.5314402,38.8093566 C86.5314402,35.1866205 87.745424,31.7951737 90.173428,28.6349144 C92.601432,25.4746552 96.031418,22.9118005 100.463489,20.9462735 L100.40568,20.8306548 C89.9228685,22.1795459 80.4807722,22.8539814 72.0791075,22.8539814 L72.0791075,18.5760909 Z M129.136917,19.3854215 C133.607527,19.6551998 138.386384,19.7900869 143.473631,19.7900869 C144.167346,16.9766854 144.783973,13.6623169 145.323529,9.84688199 L149.543611,10.0781193 C149.004054,13.6623157 148.406697,16.8803363 147.751521,19.7322775 C156.769822,19.5395788 165.402596,18.8458738 173.650101,17.6511416 L174.054767,21.4087481 C165.845801,22.6034803 156.750557,23.2971853 146.768763,23.489884 C145.61257,27.6521766 144.167351,31.6987893 142.433063,35.6298434 L142.490872,35.6876528 C146.845864,33.4138077 151.451294,32.2769023 156.307302,32.2769023 C161.047691,32.2769023 164.641468,33.2500163 167.088742,35.1962735 C169.536016,37.1425307 170.759635,39.9655247 170.759635,43.6653404 C170.759635,48.0203318 168.929024,51.4503177 165.267748,53.9554013 C161.606473,56.4604848 156.500033,57.7130077 149.948276,57.7130077 C146.171381,57.7130077 142.278925,57.2698073 138.270791,56.3833931 L139.022312,52.510168 C143.300224,53.3965822 146.942176,53.8397826 149.948276,53.8397826 C155.305301,53.8397826 159.371183,52.9630165 162.146045,51.2094581 C164.920906,49.4558996 166.308316,46.9412189 166.308316,43.6653404 C166.308316,38.6551734 162.781983,36.1501274 155.729209,36.1501274 C150.449264,36.1501274 145.477711,37.6916942 140.814402,40.7748739 L136.478702,39.040594 C139.176484,33.3367115 141.180521,28.1724629 142.490872,23.5476933 C138.791057,23.5476933 134.320513,23.4128063 129.079108,23.143028 L129.136917,19.3854215 Z M212.440162,20.1947522 C212.247464,23.3164716 212.189655,26.3417963 212.266734,29.2708171 C216.313408,29.1551978 220.649064,28.6349191 225.273834,27.7099652 L225.851927,31.4097623 C221.188618,32.3347162 216.698805,32.854995 212.382353,32.9706142 L212.555781,37.65317 C212.70994,40.69781 212.806288,43.0679688 212.844828,44.7637177 C216.313405,46.382387 220.880296,49.3884422 226.545639,53.7819733 L224.175456,56.7302491 C219.473607,53.107513 215.716038,50.5061191 212.902637,48.9259895 C212.902637,52.2789474 212.112584,54.6972802 210.532454,56.1810605 C208.952325,57.6648407 206.38947,58.4067197 202.843813,58.4067197 C199.799173,58.4067197 197.390475,57.6744755 195.617647,56.2099652 C193.844819,54.7454548 192.958418,52.7799572 192.958418,50.3134134 C192.958418,47.9624889 193.844819,46.0740696 195.617647,44.648099 C197.390475,43.2221284 199.799173,42.5091538 202.843813,42.5091538 C205.002039,42.5091538 206.928998,42.7403888 208.624746,43.2028658 C208.586207,42.5862298 208.538033,41.6612898 208.480223,40.4280179 C208.422414,39.194746 208.393509,38.2890755 208.393509,37.7109794 C208.046651,29.8103313 207.988843,23.9523777 208.220081,20.1369428 L212.440162,20.1947522 Z M208.682556,47.0182816 C207.025347,46.4401854 205.214006,46.1511416 203.248479,46.1511416 C201.282952,46.1511416 199.770289,46.5172637 198.710446,47.2495189 C197.650603,47.9817741 197.12069,49.003062 197.12069,50.3134134 C197.12069,53.2809739 199.163266,54.7647319 203.248479,54.7647319 C205.291085,54.7647319 206.7074,54.3311662 207.497465,53.4640219 C208.287529,52.5968777 208.682556,51.0649457 208.682556,48.8681802 L208.682556,47.0182816 Z M247.761663,30.831669 L254.93002,29.2708171 C264.06394,27.2282105 270.422903,26.2069226 274.007099,26.2069226 C278.130852,26.2069226 281.319968,27.2282105 283.574544,29.2708171 C285.829119,31.3134236 286.956389,34.1845917 286.956389,37.8844073 C286.956389,42.5862564 284.393535,46.8833737 279.267748,50.7758881 C274.141962,54.6684025 267.493956,57.2312572 259.323529,58.464529 L258.572008,54.7069226 C265.740401,53.5121904 271.502007,51.353997 275.856998,48.2322775 C280.211989,45.1105581 282.389452,41.7576504 282.389452,38.173454 C282.389452,32.8935087 279.287049,30.2535757 273.08215,30.2535757 C270.461447,30.2535757 265.123773,31.1592462 257.068966,32.9706142 C256.876267,33.009154 256.134388,33.1729455 254.843306,33.4619936 C253.552225,33.7510416 252.290067,34.0400854 251.056795,34.3291335 C249.823523,34.6181816 248.994931,34.8012427 248.570994,34.8783222 L247.761663,30.831669 Z M256.606491,11.4655432 C264.160281,13.5081498 271.964463,14.8570207 280.01927,15.5121964 L279.498986,19.3854215 C271.405639,18.7302459 263.46657,17.3621054 255.681542,15.2809591 L256.606491,11.4655432 Z" id="てちょう-copy-2"></path>
                    <path d="M18.3529412,23.758378 L28.3083164,23.758378 L28.3083164,20.5210555 L19.5456389,20.5210555 L19.5456389,18.3790676 L28.3083164,18.3790676 L28.3083164,15.3851528 C25.614591,15.5961072 23.0101546,15.7015828 20.494929,15.7015828 L20.3732252,13.4865727 C27.1399933,13.4865727 32.9736063,12.853719 37.8742394,11.5879926 L38.4340771,13.778662 C36.194715,14.3628434 33.6957542,14.8090864 30.9371197,15.1174043 L30.9371197,18.3790676 L38.872211,18.3790676 L38.872211,20.5210555 L30.9371197,20.5210555 L30.9371197,23.758378 L40.0649087,23.758378 L40.0649087,25.9490473 L30.9371197,25.9490473 L30.9371197,29.1133475 C30.9371197,30.6711647 30.7626792,31.6366723 30.4137931,32.0098993 C30.064907,32.3831263 29.1683642,32.569737 27.7241379,32.569737 C26.8316385,32.569737 25.436115,32.5291695 23.5375254,32.4480331 L23.4401623,30.2573638 C25.1764793,30.3385001 26.4016191,30.3790676 27.1156187,30.3790676 C27.6673456,30.3790676 28.0040562,30.3141596 28.1257606,30.1843415 C28.2474651,30.0545234 28.3083164,29.697529 28.3083164,29.1133475 L28.3083164,25.9490473 L18.3529412,25.9490473 L18.3529412,23.758378 Z M34.0770791,55.1092908 C32.7464437,53.697519 31.683574,52.0667037 30.8884381,50.2167958 L30.158215,50.2167958 L30.158215,55.9612177 C31.7160321,55.669127 33.0223071,55.3851542 34.0770791,55.1092908 Z M23.7809331,52.431806 L24.0730223,52.431806 C24.365113,52.431806 24.5395535,52.3709546 24.5963489,52.2492502 C24.6531443,52.1275457 24.6815416,51.7097 24.6815416,50.9957005 L24.6815416,42.8902238 L23.7809331,42.8902238 L23.7809331,52.431806 Z M23.7809331,40.6752137 L26.7748479,40.6752137 L26.7748479,48.1234895 L27.6511156,48.1234895 L27.6511156,38.0464104 L39.6511156,38.0464104 L39.6511156,40.1397167 L30.158215,40.1397167 L30.158215,41.5027999 L39.0425963,41.5027999 L39.0425963,43.3526985 L30.158215,43.3526985 L30.158215,44.7888039 L39.0425963,44.7888039 L39.0425963,46.6387025 L30.158215,46.6387025 L30.158215,48.1234895 L40.356998,48.1234895 L40.356998,50.2167958 L33.4198783,50.2167958 C34.0689688,51.466295 34.8965467,52.5940727 35.9026369,53.600163 C36.7302273,52.6265273 37.4685566,51.5717711 38.1176471,50.4358628 L40.1135903,51.579879 C39.3833635,52.8456054 38.5638991,54.0058372 37.6551724,55.0606092 C38.5963536,55.7259269 39.5780882,56.2776456 40.6004057,56.7157816 L39.4807302,58.8577695 C37.6145951,58.0950882 35.9026447,56.9348564 34.3448276,55.3770392 L34.6125761,57.0565524 C31.691669,57.8516882 28.7221246,58.4115204 25.703854,58.7360656 L25.4361055,56.6671001 C25.5010145,56.6671001 26.2393439,56.569738 27.6511156,56.3750108 L27.6511156,50.2167958 L26.7748479,50.2167958 L26.7748479,52.8455991 C26.7748479,53.5758258 26.624748,54.0748067 26.3245436,54.3425565 C26.0243393,54.6103063 25.4523369,54.7441792 24.6085193,54.7441792 L24.3894523,54.7441792 L23.7809331,52.6265321 L23.7809331,58.9794733 L21.3955375,58.9794733 L21.3955375,42.8902238 L20.494929,42.8902238 L20.494929,54.9875869 L18.3529412,54.9875869 L18.3529412,40.6752137 L21.3955375,40.6752137 L21.3955375,37.5109135 L23.7809331,37.5109135 L23.7809331,40.6752137 Z" id="手-帳-copy"></path>
                </g>
            </g>
        </g>
    </g>
</svg>